<?xml version="1.0" encoding="UTF-8"?>
<svg id="Layer_1" data-name="Layer 1" xmlns="http://www.w3.org/2000/svg" viewBox="0 0 499.766 109.435">
  <defs>
    <style>
      .cls-1 {
        fill: #614775;
        stroke-width: 0px;
      }
    </style>
  </defs>
  <g>
    <g>
      <path class="cls-1" d="M188.465,50.145c2.639,1.597,5.669,2.396,8.992,2.396s6.255-.799,8.894-2.396,4.692-3.693,6.255-6.388c1.564-2.695,2.346-5.789,2.443-9.083V4.23c0-.898-.293-1.497-.782-1.996s-1.173-.799-1.955-.799-1.466.2-1.955.799c-.489.499-.782,1.198-.782,1.996v18.566c-1.466-1.896-3.225-3.494-5.473-4.691s-4.692-1.797-7.428-1.797c-3.225,0-6.06.799-8.601,2.396-2.541,1.597-4.594,3.693-6.06,6.488-1.466,2.695-2.248,5.789-2.248,9.183s.782,6.588,2.346,9.283c1.564,2.795,3.616,4.891,6.353,6.488M186.706,27.686c1.075-1.996,2.541-3.494,4.496-4.691,1.857-1.098,4.007-1.697,6.255-1.697,2.346,0,4.398.599,6.255,1.697,1.857,1.098,3.323,2.695,4.398,4.691,1.075,1.996,1.564,4.192,1.564,6.688s-.489,4.791-1.564,6.688c-1.075,1.996-2.541,3.494-4.398,4.691s-4.007,1.697-6.255,1.697c-2.346,0-4.398-.599-6.255-1.697-1.857-1.198-3.323-2.695-4.496-4.691-1.075-1.996-1.662-4.192-1.662-6.688s.586-4.691,1.662-6.688"/>
      <path class="cls-1" d="M223.749,10.219c.977,0,1.857-.399,2.639-1.098.782-.699,1.075-1.597,1.075-2.695s-.391-1.996-1.075-2.695c-.782-.699-1.564-1.098-2.541-1.098s-1.857.399-2.639,1.098c-.782.699-1.075,1.597-1.075,2.695s.391,1.996,1.075,2.695c.586.799,1.466,1.098,2.541,1.098"/>
      <path class="cls-1" d="M223.749,16.707c-.782,0-1.466.2-1.955.799-.489.499-.782,1.198-.782,1.996v29.945c0,.799.293,1.497.782,1.996s1.173.799,1.955.799,1.466-.299,1.955-.799.782-1.198.782-1.996v-29.945c0-.898-.195-1.497-.782-1.996s-1.173-.799-1.955-.799"/>
      <path class="cls-1" d="M275.062,10.219c.977,0,1.857-.399,2.639-1.098.782-.699,1.075-1.597,1.075-2.695s-.391-1.996-1.075-2.695c-.782-.699-1.564-1.098-2.541-1.098s-1.857.399-2.639,1.098c-.782.699-1.075,1.597-1.075,2.695s.391,1.996,1.075,2.695c.586.799,1.466,1.098,2.541,1.098"/>
      <path class="cls-1" d="M275.062,16.707c-.782,0-1.466.2-1.955.799-.489.499-.782,1.198-.782,1.996v29.945c0,.799.293,1.497.782,1.996s1.173.799,1.955.799,1.466-.299,1.955-.799.782-1.198.782-1.996v-29.945c0-.898-.195-1.497-.782-1.996-.489-.599-1.173-.799-1.955-.799"/>
      <path class="cls-1" d="M302.43,46.651h-1.857c-1.759,0-3.225-.699-4.398-1.996s-1.759-2.994-1.759-4.991v-16.969h6.646c.684,0,1.271-.2,1.759-.599.489-.399.684-.998.684-1.697s-.195-1.298-.684-1.697c-.489-.499-1.075-.699-1.759-.699h-6.646v-9.782c0-.799-.293-1.497-.782-1.996s-1.173-.799-1.857-.799c-.782,0-1.466.299-1.955.799s-.782,1.198-.782,1.996v9.782h-3.714c-.684,0-1.271.2-1.759.699s-.684.998-.684,1.697.195,1.298.684,1.697,1.075.599,1.759.599h3.714v16.969c0,2.396.489,4.492,1.466,6.388s2.346,3.394,4.105,4.492,3.714,1.597,5.864,1.597h1.271c.88,0,1.662-.2,2.248-.799.586-.499.88-1.198.88-1.996s-.195-1.497-.684-1.996c-.489-.399-1.075-.699-1.759-.699"/>
      <path class="cls-1" d="M333.218,18.703c-2.639-1.597-5.669-2.396-8.894-2.396-3.323,0-6.353.799-8.992,2.396-2.639,1.597-4.789,3.693-6.353,6.488-1.564,2.695-2.346,5.789-2.346,9.283s.782,6.488,2.248,9.183,3.519,4.891,6.06,6.488c2.541,1.597,5.473,2.396,8.601,2.396,3.225,0,5.864-.799,8.308-2.296,1.857-1.098,3.323-2.495,4.594-4.292v3.494c0,.799.293,1.497.782,1.996s1.173.799,1.955.799,1.368-.2,1.955-.799c.489-.499.782-1.198.782-1.996v-14.972c0-3.494-.88-6.588-2.346-9.283-1.564-2.695-3.714-4.891-6.353-6.488M334.977,41.161c-1.075,1.996-2.541,3.494-4.398,4.691-1.857,1.098-4.007,1.697-6.255,1.697s-4.398-.599-6.255-1.697-3.323-2.695-4.496-4.691c-1.075-1.996-1.662-4.192-1.662-6.688s.586-4.791,1.662-6.688c1.075-1.996,2.541-3.494,4.496-4.691,1.857-1.198,4.007-1.697,6.255-1.697s4.398.599,6.255,1.697c1.857,1.198,3.323,2.695,4.398,4.691,1.075,1.996,1.564,4.192,1.564,6.688s-.489,4.691-1.564,6.688"/>
      <path class="cls-1" d="M351.886,50.744c1.368.998,2.932,1.497,4.692,1.497h.586c.977,0,1.857-.2,2.443-.799.586-.499.88-1.198.88-1.996s-.195-1.497-.586-1.996c-.391-.499-.977-.799-1.759-.799h-1.564c-1.075,0-1.955-.599-2.639-1.697s-1.075-2.595-1.075-4.392V4.23c0-.799-.195-1.497-.782-1.996-.489-.499-1.173-.799-1.955-.799s-1.466.2-1.955.799c-.489.499-.782,1.198-.782,1.996v36.532c0,2.296.391,4.292,1.173,5.989.88,1.697,1.955,2.994,3.323,3.993"/>
      <path class="cls-1" d="M225.802,73.502c-1.271,0-2.248.799-2.639,2.296l-7.721,24.255-6.744-24.355c-.195-.599-.489-1.198-.88-1.597-.489-.399-1.075-.599-1.759-.599s-1.271.2-1.759.599c-.391.399-.782.898-.977,1.597l-7.233,24.255-7.721-24.155c-.293-.799-.586-1.397-1.075-1.797-.489-.299-.977-.499-1.662-.499-.977,0-1.662.299-1.955.998s-.293,1.597,0,2.795l9.774,29.845c.195.499.489.998.977,1.298s1.075.499,1.662.499,1.075-.2,1.564-.499.782-.799.977-1.298l7.233-24.954,7.233,24.954c.098.499.391.998.88,1.298s1.075.499,1.662.499,1.173-.2,1.662-.499.782-.799.88-1.298l9.774-29.845c.391-.998.391-1.896,0-2.695-.489-.699-1.173-1.098-2.15-1.098"/>
    </g>
    <path class="cls-1" d="M258.447,50.245c2.639-1.597,4.692-3.693,6.255-6.388,1.564-2.695,2.248-5.789,2.248-9.283s-.88-6.588-2.346-9.383c-1.564-2.695-3.616-4.891-6.255-6.388-1.955-1.098-4.007-1.896-6.353-2.196v-3.494c0-.898-.195-1.497-.782-1.996-.489-.499-1.173-.799-1.955-.799s-1.466.2-1.955.799c-.489.499-.782,1.198-.782,1.996v3.494c-2.346.299-4.496.998-6.353,2.196-2.639,1.597-4.692,3.693-6.255,6.388s-2.248,5.889-2.248,9.383.782,6.588,2.248,9.283c1.564,2.695,3.616,4.891,6.255,6.388,1.955,1.098,4.007,1.797,6.353,2.196v6.189c-2.346.299-4.496.998-6.353,2.196-2.639,1.597-4.692,3.693-6.255,6.388-1.564,2.695-2.248,5.889-2.248,9.383s.782,6.588,2.248,9.283c1.564,2.695,3.616,4.891,6.255,6.388,2.639,1.597,5.669,2.296,9.09,2.296s6.451-.799,9.09-2.296c2.639-1.597,4.692-3.693,6.255-6.388,1.564-2.695,2.248-5.789,2.248-9.283s-.88-6.588-2.346-9.383c-1.564-2.695-3.616-4.891-6.255-6.388-1.955-1.098-4.007-1.896-6.353-2.196v-6.089c2.541-.499,4.594-1.198,6.549-2.296M238.605,41.261c-1.075-1.996-1.662-4.192-1.662-6.688s.489-4.791,1.662-6.787,2.541-3.494,4.398-4.691c1.857-1.098,4.007-1.697,6.353-1.697s4.496.599,6.353,1.697c1.857,1.098,3.323,2.695,4.398,4.691,1.075,1.996,1.564,4.292,1.564,6.787s-.489,4.791-1.564,6.688-2.541,3.494-4.398,4.591-4.007,1.697-6.353,1.697-4.496-.599-6.353-1.697-3.323-2.695-4.398-4.591M260.108,69.709c1.075,1.996,1.564,4.292,1.564,6.787s-.489,4.791-1.564,6.688-2.541,3.494-4.398,4.591-4.007,1.697-6.353,1.697-4.496-.599-6.353-1.697-3.323-2.695-4.398-4.591c-1.075-1.996-1.662-4.192-1.662-6.688s.489-4.791,1.662-6.787,2.541-3.494,4.398-4.691c1.857-1.098,4.007-1.697,6.353-1.697s4.496.599,6.353,1.697c1.857,1.098,3.323,2.695,4.398,4.691"/>
    <path class="cls-1" d="M295.392,74.999c-2.346-1.298-5.082-1.896-8.015-1.896-2.737,0-5.278.599-7.526,1.896-1.466.799-2.737,1.797-3.812,2.994v-1.697c0-.898-.195-1.497-.782-1.996-.489-.499-1.173-.799-1.955-.799s-1.466.2-1.955.799c-.489.499-.782,1.198-.782,1.996v30.044c0,.799.293,1.497.782,1.996s1.173.799,1.955.799,1.466-.2,1.955-.799c.489-.499.782-1.198.782-1.996v-18.965c0-1.797.489-3.294,1.368-4.691.977-1.397,2.248-2.396,3.812-3.194s3.421-1.198,5.376-1.198c2.15,0,4.007.399,5.669,1.198s2.932,2.096,3.91,3.693c.977,1.697,1.466,3.793,1.466,6.488v16.669c0,.799.293,1.397.782,1.896s1.173.799,1.955.799,1.368-.299,1.857-.799.782-1.198.782-1.896v-16.569c0-3.593-.684-6.588-2.053-9.083-1.271-2.495-3.128-4.392-5.571-5.689"/>
    <path class="cls-1" d="M339.18,58.33c-.782,0-1.466.2-1.955.799-.489.499-.782,1.198-.782,1.996v18.566c-1.466-1.896-3.225-3.494-5.473-4.691s-4.692-1.797-7.428-1.797c-3.225,0-6.06.799-8.601,2.396s-4.594,3.693-6.06,6.488c-1.466,2.695-2.248,5.789-2.248,9.183s.782,6.588,2.346,9.283c1.564,2.695,3.616,4.891,6.353,6.488,2.639,1.597,5.669,2.396,8.992,2.396s6.255-.799,8.894-2.396c2.639-1.597,4.692-3.693,6.255-6.388,1.564-2.695,2.346-5.789,2.443-9.083v-30.444c0-.898-.293-1.497-.782-1.996-.489-.599-1.075-.799-1.955-.799M334.977,97.956c-1.075,1.996-2.541,3.494-4.398,4.691s-4.007,1.697-6.255,1.697-4.398-.599-6.255-1.697c-1.857-1.198-3.323-2.695-4.496-4.691-1.075-1.996-1.662-4.192-1.662-6.688s.586-4.691,1.662-6.688c1.075-1.996,2.541-3.494,4.496-4.691,1.857-1.098,4.007-1.697,6.255-1.697s4.398.599,6.255,1.697,3.323,2.695,4.398,4.691,1.564,4.192,1.564,6.688c.098,2.396-.489,4.691-1.564,6.688"/>
    <path class="cls-1" d="M371.727,75.398c-2.346-1.497-5.18-2.296-8.503-2.296-3.225,0-6.255.799-8.699,2.296-2.541,1.597-4.496,3.693-5.962,6.388-1.466,2.695-2.15,5.789-2.15,9.383s.782,6.588,2.248,9.383c1.564,2.695,3.616,4.891,6.255,6.388s5.767,2.296,9.188,2.296c1.955,0,4.105-.399,6.158-1.198s3.91-1.797,5.376-2.994c.586-.499.782-1.098.782-1.697,0-.699-.293-1.298-.88-1.896-.489-.399-1.075-.599-1.662-.499-.684,0-1.271.2-1.759.699-.88.799-2.053,1.397-3.616,1.896-1.466.499-2.932.799-4.398.799-2.541,0-4.692-.599-6.646-1.697-1.955-1.198-3.421-2.695-4.496-4.691-.88-1.497-1.368-3.094-1.564-4.991h25.217c.684,0,1.271-.2,1.759-.699s.684-1.098.684-1.797c0-3.394-.684-6.388-1.955-8.983-1.173-2.595-3.03-4.592-5.376-6.089M356.968,79.69c1.759-1.198,3.91-1.697,6.255-1.697,2.248,0,4.203.499,5.864,1.597s2.932,2.595,3.812,4.492c.586,1.397,1.075,2.895,1.271,4.492h-22.676c.195-1.497.684-2.895,1.271-4.192.977-1.996,2.443-3.494,4.203-4.691"/>
    <path class="cls-1" d="M405.154,74.1c-1.173-.599-2.737-.998-4.887-.998-2.541,0-4.789.599-6.842,1.797-1.564.898-2.932,2.096-4.007,3.593v-2.296c0-.898-.195-1.497-.684-1.996s-1.173-.699-1.955-.699c-.88,0-1.466.2-1.955.699s-.684,1.198-.684,1.996v30.144c0,.898.195,1.497.684,1.996s1.173.699,1.955.699c.88,0,1.466-.2,1.955-.699s.684-1.198.684-1.996v-19.264c0-1.996.586-3.693,1.759-5.091s2.737-2.495,4.594-3.094c1.955-.599,4.203-.799,6.646-.399.684,0,1.271.1,1.759.1s.977-.1,1.368-.399c.391-.2.684-.699.782-1.298.391-1.298,0-2.196-1.173-2.795"/>
    <path class="cls-1" d="M420.89,103.546h-1.564c-1.075,0-1.955-.599-2.639-1.697-.684-1.098-1.075-2.595-1.075-4.392v-36.433c0-.799-.195-1.497-.782-1.996-.489-.499-1.173-.799-1.955-.799s-1.466.2-1.955.799c-.489.499-.782,1.198-.782,1.996v36.532c0,2.296.391,4.292,1.173,5.989.782,1.697,1.857,3.094,3.225,4.092s2.932,1.497,4.691,1.497h.586c.977,0,1.857-.2,2.443-.799.586-.499.88-1.198.88-1.996s-.195-1.497-.586-1.996-.977-.799-1.662-.799"/>
    <path class="cls-1" d="M450.603,75.598c-2.639-1.597-5.669-2.396-8.894-2.396s-6.353.799-8.992,2.396-4.789,3.693-6.353,6.488c-1.564,2.695-2.346,5.789-2.346,9.283s.782,6.488,2.248,9.183,3.519,4.891,6.06,6.488,5.473,2.396,8.601,2.396,5.864-.799,8.308-2.296c1.857-1.098,3.323-2.495,4.594-4.292v3.394c0,.799.293,1.497.782,1.996s1.173.799,1.955.799,1.368-.2,1.955-.799c.489-.499.782-1.198.782-1.996v-14.972c0-3.494-.88-6.588-2.346-9.283-1.564-2.695-3.714-4.891-6.353-6.388M452.362,97.956c-1.075,1.996-2.541,3.494-4.398,4.691-1.857,1.098-4.007,1.697-6.255,1.697-2.346,0-4.398-.599-6.255-1.697-1.857-1.098-3.323-2.695-4.496-4.691-1.075-1.996-1.662-4.192-1.662-6.688s.586-4.791,1.662-6.688,2.541-3.494,4.496-4.691c1.857-1.198,4.007-1.697,6.255-1.697,2.346,0,4.398.599,6.255,1.697,1.857,1.198,3.323,2.695,4.398,4.691s1.564,4.192,1.564,6.688c0,2.495-.489,4.691-1.564,6.688"/>
    <path class="cls-1" d="M497.616,81.986c-1.466-2.695-3.421-4.891-5.962-6.488s-5.473-2.396-8.601-2.396c-2.737,0-5.18.599-7.428,1.797-2.248,1.198-4.105,2.795-5.571,4.691v-18.466c0-.898-.195-1.497-.782-1.996-.489-.499-1.173-.799-1.955-.799s-1.466.2-1.955.799c-.489.499-.782,1.198-.782,1.996v30.344c0,3.394.88,6.388,2.346,9.083s3.616,4.891,6.255,6.388c2.639,1.597,5.571,2.396,8.894,2.396s6.451-.799,9.09-2.396c2.639-1.597,4.789-3.693,6.255-6.488,1.564-2.695,2.346-5.789,2.346-9.283,0-3.394-.782-6.488-2.15-9.183M492.827,97.956c-1.075,1.996-2.541,3.494-4.398,4.691s-4.007,1.697-6.353,1.697-4.398-.599-6.255-1.697c-1.857-1.198-3.323-2.695-4.398-4.691s-1.564-4.192-1.564-6.688.489-4.691,1.564-6.688,2.541-3.494,4.398-4.691c1.857-1.098,4.007-1.697,6.255-1.697s4.496.599,6.353,1.697,3.323,2.695,4.398,4.691,1.662,4.192,1.662,6.688-.586,4.691-1.662,6.688"/>
  </g>
  <g>
    <path class="cls-1" d="M7.168.64c1.504,0,2.808.176,3.912.528,1.104.352,2.016.846,2.736,1.48.72.635,1.256,1.398,1.608,2.288.352.891.528,1.875.528,2.952,0,1.099-.187,2.104-.56,3.016s-.928,1.696-1.664,2.352c-.736.656-1.65,1.168-2.744,1.536-1.094.368-2.366.552-3.816.552h-3.424v8.336H0V.64h7.168ZM7.168,12.384c.832,0,1.565-.106,2.2-.32.634-.213,1.163-.514,1.584-.904.421-.389.738-.861.952-1.416.213-.555.32-1.173.32-1.856,0-.672-.104-1.274-.312-1.808-.208-.533-.52-.986-.936-1.36-.416-.373-.941-.659-1.576-.856-.635-.197-1.379-.296-2.232-.296h-3.424v8.816h3.424Z"/>
    <path class="cls-1" d="M25.152,7.104c1.206,0,2.296.198,3.272.592.976.395,1.808.955,2.496,1.68.688.726,1.219,1.605,1.592,2.64.373,1.035.56,2.198.56,3.488s-.187,2.453-.56,3.488c-.374,1.035-.904,1.917-1.592,2.648-.688.731-1.52,1.293-2.496,1.688-.976.395-2.066.592-3.272.592-1.216,0-2.312-.198-3.288-.592-.976-.395-1.811-.957-2.504-1.688-.693-.73-1.227-1.613-1.6-2.648-.373-1.035-.56-2.197-.56-3.488s.187-2.454.56-3.488c.374-1.035.907-1.915,1.6-2.64.693-.725,1.528-1.285,2.504-1.68.976-.395,2.072-.592,3.288-.592ZM25.152,21.232c1.472,0,2.568-.493,3.288-1.48.72-.986,1.08-2.397,1.08-4.232s-.36-3.25-1.08-4.248c-.72-.997-1.816-1.496-3.288-1.496-1.493,0-2.603.499-3.328,1.496-.726.998-1.088,2.414-1.088,4.248s.363,3.246,1.088,4.232c.725.987,1.834,1.48,3.328,1.48Z"/>
    <path class="cls-1" d="M59.04,7.36l-5.232,16.32h-2.736c-.32,0-.544-.208-.672-.624l-3.248-10.16c-.086-.288-.163-.576-.232-.864s-.13-.57-.184-.848c-.118.576-.262,1.152-.432,1.728l-3.296,10.144c-.118.416-.368.624-.752.624h-2.608l-5.232-16.32h2.72c.267,0,.488.066.664.2.176.134.291.291.344.472l2.72,9.504c.106.438.2.861.28,1.272s.152.819.216,1.224c.106-.405.218-.813.336-1.224.117-.411.24-.834.368-1.272l3.056-9.552c.053-.192.163-.35.328-.472.165-.123.365-.184.6-.184h1.504c.245,0,.453.062.624.184.17.123.282.28.336.472l2.976,9.552c.128.438.248.864.36,1.28.112.416.216.832.312,1.248.074-.405.154-.816.24-1.232s.187-.848.304-1.296l2.768-9.504c.064-.192.181-.352.352-.48.17-.128.378-.192.624-.192h2.592Z"/>
    <path class="cls-1" d="M63.776,15.792c.042.928.187,1.731.432,2.408.245.677.573,1.24.984,1.688.411.448.901.781,1.472,1,.57.219,1.208.328,1.912.328.672,0,1.253-.077,1.744-.232.49-.155.917-.326,1.28-.512.362-.187.672-.357.928-.512.256-.154.49-.232.704-.232.277,0,.491.107.64.32l.976,1.264c-.406.48-.864.886-1.376,1.216-.512.331-1.056.6-1.632.808-.576.208-1.168.357-1.776.448-.608.09-1.2.136-1.776.136-1.131,0-2.179-.19-3.144-.568s-1.803-.936-2.512-1.672c-.71-.736-1.264-1.648-1.664-2.736-.4-1.088-.6-2.341-.6-3.76,0-1.13.178-2.187.536-3.168.357-.981.869-1.834,1.536-2.56.667-.725,1.478-1.298,2.432-1.72s2.035-.632,3.24-.632c1.002,0,1.93.163,2.784.488s1.589.803,2.208,1.432,1.102,1.4,1.448,2.312c.346.912.52,1.95.52,3.112,0,.533-.059.891-.176,1.072-.117.182-.331.272-.64.272h-10.48ZM71.984,13.68c0-.576-.083-1.112-.248-1.608-.165-.496-.408-.928-.728-1.296-.32-.368-.718-.656-1.192-.864s-1.021-.312-1.64-.312c-1.248,0-2.229.357-2.944,1.072-.715.714-1.168,1.717-1.36,3.008h8.112Z"/>
    <path class="cls-1" d="M81.52,10.384c.512-1.035,1.13-1.848,1.856-2.44.725-.592,1.594-.888,2.608-.888.352,0,.683.04.992.12.31.08.587.2.832.36l-.24,2.592c-.043.181-.109.307-.2.376s-.21.104-.36.104c-.16,0-.39-.029-.688-.088-.299-.058-.614-.088-.944-.088-.48,0-.904.069-1.272.208-.368.139-.699.341-.992.608-.293.267-.552.592-.776.976-.224.384-.432.822-.624,1.312v10.144h-3.44V7.36h2c.362,0,.613.066.752.2.138.134.234.366.288.696l.208,2.128Z"/>
    <path class="cls-1" d="M92.016,15.792c.042.928.187,1.731.432,2.408.245.677.573,1.24.984,1.688.411.448.901.781,1.472,1,.57.219,1.208.328,1.912.328.672,0,1.253-.077,1.744-.232.49-.155.917-.326,1.28-.512.362-.187.672-.357.928-.512.256-.154.49-.232.704-.232.277,0,.491.107.64.32l.976,1.264c-.406.48-.864.886-1.376,1.216-.512.331-1.056.6-1.632.808-.576.208-1.168.357-1.776.448-.608.09-1.2.136-1.776.136-1.131,0-2.179-.19-3.144-.568s-1.803-.936-2.512-1.672c-.71-.736-1.264-1.648-1.664-2.736-.4-1.088-.6-2.341-.6-3.76,0-1.13.178-2.187.536-3.168.357-.981.869-1.834,1.536-2.56.667-.725,1.478-1.298,2.432-1.72s2.035-.632,3.24-.632c1.002,0,1.93.163,2.784.488s1.589.803,2.208,1.432,1.102,1.4,1.448,2.312c.346.912.52,1.95.52,3.112,0,.533-.059.891-.176,1.072-.117.182-.331.272-.64.272h-10.48ZM100.224,13.68c0-.576-.083-1.112-.248-1.608-.165-.496-.408-.928-.728-1.296-.32-.368-.718-.656-1.192-.864s-1.021-.312-1.64-.312c-1.248,0-2.229.357-2.944,1.072-.715.714-1.168,1.717-1.36,3.008h8.112Z"/>
    <path class="cls-1" d="M120.368,0v23.68h-2.08c-.459,0-.752-.218-.88-.656l-.304-1.776c-.683.8-1.458,1.446-2.328,1.936-.869.491-1.88.736-3.032.736-.917,0-1.75-.184-2.496-.552s-1.387-.904-1.92-1.608c-.534-.704-.947-1.576-1.24-2.616s-.44-2.232-.44-3.576c0-1.216.163-2.341.488-3.376.325-1.035.792-1.934,1.4-2.696.608-.762,1.346-1.36,2.216-1.792.869-.432,1.843-.648,2.92-.648.96,0,1.776.152,2.448.456s1.274.728,1.808,1.272V0h3.44ZM116.928,11.376c-.48-.618-1.008-1.05-1.584-1.296-.576-.245-1.2-.368-1.872-.368-1.344,0-2.395.493-3.152,1.48-.757.986-1.136,2.445-1.136,4.376,0,1.002.085,1.858.256,2.568.17.709.416,1.288.736,1.736.32.448.709.773,1.168.976.458.203.976.304,1.552.304.875,0,1.629-.189,2.264-.568.634-.378,1.224-.915,1.768-1.608v-7.6Z"/>
    <path class="cls-1" d="M135.967,9.52c.672-.736,1.424-1.322,2.256-1.76s1.781-.656,2.848-.656c.949,0,1.805.184,2.568.552s1.411.898,1.944,1.592c.533.694.944,1.534,1.232,2.52.288.987.432,2.099.432,3.336,0,1.323-.163,2.526-.488,3.608-.326,1.083-.792,2.011-1.4,2.784-.608.773-1.344,1.371-2.208,1.792-.864.421-1.83.632-2.896.632-.523,0-.998-.051-1.424-.152-.427-.101-.821-.248-1.184-.44s-.696-.421-1-.688c-.304-.267-.595-.57-.872-.912l-.144,1.264c-.054.246-.15.421-.288.528-.139.107-.331.16-.576.16h-2.24V0h3.44v9.52ZM135.967,19.584c.48.619,1.005,1.054,1.576,1.304.571.251,1.192.376,1.864.376,1.354,0,2.411-.491,3.168-1.472.757-.981,1.136-2.501,1.136-4.56,0-1.877-.328-3.248-.984-4.112-.656-.864-1.592-1.296-2.808-1.296-.843,0-1.576.189-2.2.568-.624.379-1.208.92-1.752,1.624v7.568Z"/>
    <path class="cls-1" d="M164.607,7.36l-8.992,20.96c-.118.245-.259.437-.424.576-.166.139-.419.208-.76.208h-2.544l3.008-6.528-6.656-15.216h2.992c.288,0,.509.066.664.2.155.134.27.291.344.472l3.888,9.264c.096.267.184.531.264.792s.157.531.232.808c.085-.277.171-.549.256-.816.085-.267.181-.533.288-.8l3.728-9.248c.075-.192.2-.352.376-.48.176-.128.37-.192.584-.192h2.752Z"/>
  </g>
</svg>